<?xml version="1.0" encoding="utf-8"?>
<!-- Generator: Adobe Illustrator 22.0.1, SVG Export Plug-In . SVG Version: 6.00 Build 0)  -->
<svg version="1.1" id="격리_모드" xmlns="http://www.w3.org/2000/svg" xmlns:xlink="http://www.w3.org/1999/xlink" x="0px"
	 y="0px" viewBox="0 0 80 80" style="enable-background:new 0 0 80 80;" xml:space="preserve">
<style type="text/css">
	.st0{fill:#F0DA28;}
	.st1{fill:#381E1E;}
</style>
<circle class="st0" cx="40" cy="40" r="40"/>
<g>
	<polygon class="st1" points="34.2,36.5 32.7,41.1 35.6,41.1 34.2,36.5 	"/>
	<path class="st1" d="M40,21.8c-11.9,0-21.5,7.6-21.5,17c0,6,4,11.3,10,14.4l-2,7.6c-0.1,0.2,0,0.5,0.2,0.6c0.1,0.1,0.3,0.2,0.4,0.2
		c0.1,0,0.3-0.1,0.4-0.1l8.7-5.9c1.3,0.2,2.6,0.3,3.9,0.3c11.9,0,21.5-7.6,21.5-17C61.5,29.4,51.9,21.8,40,21.8z M28.5,44.2
		c0,0.4-0.1,0.7-0.3,0.9c-0.2,0.2-0.5,0.4-0.9,0.4c-0.3,0-0.6-0.1-0.8-0.3c-0.2-0.2-0.4-0.4-0.4-0.7c0-0.1,0-0.2,0-0.3l0-8.1h-2.3
		c-0.3,0-0.6-0.1-0.8-0.2c-0.2-0.1-0.4-0.4-0.4-0.6c0-0.1,0-0.2,0-0.2c0-0.3,0.1-0.6,0.4-0.8c0.2-0.2,0.5-0.3,0.9-0.3h7.2
		c0.3,0,0.6,0.1,0.8,0.2c0.2,0.1,0.4,0.4,0.4,0.6c0,0.1,0,0.2,0,0.2c0,0.4-0.1,0.6-0.4,0.8c-0.2,0.2-0.5,0.3-0.9,0.3h-2.3L28.5,44.2
		z M38.7,45.1c-0.2,0.2-0.5,0.3-0.8,0.3c-0.6,0-0.9-0.2-1.1-0.7l-0.6-1.9h-4l-0.6,1.9c-0.2,0.5-0.5,0.7-1.1,0.7
		c-0.3,0-0.5-0.1-0.7-0.2c-0.2-0.1-0.3-0.4-0.4-0.6c0-0.1,0-0.2,0-0.3c0-0.1,0-0.3,0.1-0.5c0-0.2,0.1-0.4,0.2-0.5l3.2-8.8
		c0.1-0.3,0.3-0.5,0.5-0.6c0.2-0.1,0.5-0.2,0.8-0.2h0.6c0.3,0,0.6,0.1,0.8,0.2c0.2,0.1,0.4,0.4,0.5,0.8l3,8.7
		c0.1,0.3,0.2,0.5,0.2,0.7c0,0.1,0,0.2,0,0.3C39.1,44.6,39,44.9,38.7,45.1z M47,45c-0.2,0.2-0.5,0.3-0.9,0.3h-5.2
		c-0.4,0-0.7-0.1-0.9-0.2c-0.2-0.2-0.4-0.4-0.5-0.8c0-0.1,0-0.3-0.1-0.5l0-8.7c0-0.4,0.1-0.7,0.3-0.9c0.2-0.2,0.5-0.4,0.9-0.4
		c0.3,0,0.6,0.1,0.8,0.3c0.2,0.2,0.4,0.4,0.4,0.7c0,0.1,0,0.2,0,0.3l0,8.1h4.1c0.3,0,0.6,0.1,0.8,0.2c0.2,0.1,0.4,0.4,0.4,0.6
		c0,0.1,0,0.2,0,0.2C47.4,44.5,47.3,44.8,47,45z M56.7,44.2c0,0.4-0.1,0.8-0.4,1c-0.2,0.2-0.6,0.3-0.9,0.3c-0.3,0-0.5,0-0.6-0.1
		c-0.2-0.1-0.3-0.3-0.5-0.5l-2.9-4.6l-1.4,1.4l0,2.6c0,0.4-0.1,0.7-0.3,0.9c-0.2,0.2-0.5,0.4-0.9,0.4c-0.3,0-0.6-0.1-0.8-0.3
		c-0.2-0.2-0.4-0.4-0.4-0.7c0-0.1,0-0.2,0-0.3l0-9.2c0-0.4,0.1-0.7,0.3-0.9c0.2-0.2,0.5-0.4,0.9-0.4c0.3,0,0.6,0.1,0.8,0.3
		c0.2,0.2,0.4,0.4,0.4,0.7c0,0.1,0,0.2,0,0.3l0,3.8l3.9-4.5c0.2-0.2,0.3-0.3,0.5-0.4c0.1-0.1,0.3-0.1,0.5-0.1c0.3,0,0.5,0.1,0.7,0.2
		c0.2,0.1,0.4,0.4,0.4,0.6c0,0,0,0,0,0.1c0,0,0,0.1,0,0.1c0,0.2,0,0.3-0.1,0.5c-0.1,0.1-0.2,0.3-0.3,0.4l-2.5,2.8l3,4.8l0.1,0.1
		c0.2,0.3,0.3,0.6,0.4,0.7C56.7,44.1,56.7,44.1,56.7,44.2C56.7,44.2,56.7,44.2,56.7,44.2z"/>
</g>
</svg>
