<?xml version="1.0" encoding="utf-8"?>
<!-- Generator: Adobe Illustrator 26.0.2, SVG Export Plug-In . SVG Version: 6.00 Build 0)  -->
<svg version="1.1" id="Layer_1" xmlns="http://www.w3.org/2000/svg" xmlns:xlink="http://www.w3.org/1999/xlink" x="0px" y="0px"
	 viewBox="0 0 512 512" style="enable-background:new 0 0 512 512;" xml:space="preserve">
<style type="text/css">
	.st0{fill:#FFFFFF;}
</style>
<g id="_01_align_center">
	<path class="st0" d="M106.7,405.3h94.2l291.1-291.1c26-26,26-68.1,0-94.2c-26.3-25.2-67.8-25.2-94.2,0L106.7,311.2V405.3z
		 M149.3,328.8L427.9,50.3c9.5-9,24.4-9,33.8,0c9.3,9.4,9.3,24.5,0,33.8L183.2,362.7h-33.8V328.8z"/>
	<path class="st0" d="M503.9,162.6l-34.6,34.6v144.1h-128v128H42.7V64c0-11.8,9.6-21.3,21.3-21.3h250.8l34.6-34.6
		c3.1-2.9,6.4-5.6,9.8-8.1H64C28.7,0,0,28.7,0,64v448h392.8L512,392.8V152.8C509.5,156.2,506.8,159.5,503.9,162.6z M384,460.5V384
		h76.5L384,460.5z"/>
</g>
</svg>
